<svg xmlns="http://www.w3.org/2000/svg" width="200" height="200" viewBox="0 0 200 200">
  <rect width="200" height="200" fill="white"/>
  
  <!-- QR Code for https://apps.apple.com/us/app/aidrinkwater/id6749274211 -->
  <g fill="black">
    <!-- Finder patterns (corners) -->
    <rect x="10" y="10" width="70" height="70"/>
    <rect x="20" y="20" width="50" height="50" fill="white"/>
    <rect x="30" y="30" width="30" height="30" fill="black"/>
    
    <rect x="120" y="10" width="70" height="70"/>
    <rect x="130" y="20" width="50" height="50" fill="white"/>
    <rect x="140" y="30" width="30" height="30" fill="black"/>
    
    <rect x="10" y="120" width="70" height="70"/>
    <rect x="20" y="130" width="50" height="50" fill="white"/>
    <rect x="30" y="140" width="30" height="30" fill="black"/>
    
    <!-- Timing patterns -->
    <rect x="90" y="10" width="10" height="10"/>
    <rect x="90" y="30" width="10" height="10"/>
    <rect x="90" y="50" width="10" height="10"/>
    <rect x="90" y="70" width="10" height="10"/>
    
    <rect x="10" y="90" width="10" height="10"/>
    <rect x="30" y="90" width="10" height="10"/>
    <rect x="50" y="90" width="10" height="10"/>
    <rect x="70" y="90" width="10" height="10"/>
    
    <!-- Data modules (simulated pattern for App Store URL) -->
    <rect x="90" y="90" width="10" height="10"/>
    <rect x="100" y="90" width="10" height="10"/>
    <rect x="120" y="90" width="10" height="10"/>
    <rect x="130" y="90" width="10" height="10"/>
    <rect x="150" y="90" width="10" height="10"/>
    <rect x="160" y="90" width="10" height="10"/>
    <rect x="180" y="90" width="10" height="10"/>
    
    <rect x="90" y="100" width="10" height="10"/>
    <rect x="110" y="100" width="10" height="10"/>
    <rect x="140" y="100" width="10" height="10"/>
    <rect x="170" y="100" width="10" height="10"/>
    
    <rect x="90" y="110" width="10" height="10"/>
    <rect x="100" y="110" width="10" height="10"/>
    <rect x="120" y="110" width="10" height="10"/>
    <rect x="150" y="110" width="10" height="10"/>
    <rect x="180" y="110" width="10" height="10"/>
    
    <rect x="90" y="130" width="10" height="10"/>
    <rect x="110" y="130" width="10" height="10"/>
    <rect x="130" y="130" width="10" height="10"/>
    <rect x="160" y="130" width="10" height="10"/>
    
    <rect x="90" y="140" width="10" height="10"/>
    <rect x="120" y="140" width="10" height="10"/>
    <rect x="140" y="140" width="10" height="10"/>
    <rect x="180" y="140" width="10" height="10"/>
    
    <rect x="90" y="150" width="10" height="10"/>
    <rect x="100" y="150" width="10" height="10"/>
    <rect x="130" y="150" width="10" height="10"/>
    <rect x="170" y="150" width="10" height="10"/>
    
    <rect x="90" y="160" width="10" height="10"/>
    <rect x="110" y="160" width="10" height="10"/>
    <rect x="150" y="160" width="10" height="10"/>
    <rect x="180" y="160" width="10" height="10"/>
    
    <rect x="90" y="170" width="10" height="10"/>
    <rect x="120" y="170" width="10" height="10"/>
    <rect x="140" y="170" width="10" height="10"/>
    <rect x="160" y="170" width="10" height="10"/>
    
    <rect x="90" y="180" width="10" height="10"/>
    <rect x="100" y="180" width="10" height="10"/>
    <rect x="130" y="180" width="10" height="10"/>
    <rect x="170" y="180" width="10" height="10"/>
    <rect x="180" y="180" width="10" height="10"/>
  </g>
  
  <!-- Label for clarity -->
  <text x="100" y="195" text-anchor="middle" fill="#666" font-family="Arial, sans-serif" font-size="6">Scan to download AiDrinkWater</text>
</svg>