<svg xmlns="http://www.w3.org/2000/svg" width="200" height="200" viewBox="0 0 200 200">
  <rect width="200" height="200" fill="white"/>
  
  <!-- QR Code Pattern Simulation -->
  <g fill="black">
    <!-- Corner squares -->
    <rect x="10" y="10" width="60" height="60"/>
    <rect x="130" y="10" width="60" height="60"/>
    <rect x="10" y="130" width="60" height="60"/>
    
    <!-- Inner corners -->
    <rect x="20" y="20" width="40" height="40" fill="white"/>
    <rect x="140" y="20" width="40" height="40" fill="white"/>
    <rect x="20" y="140" width="40" height="40" fill="white"/>
    
    <rect x="30" y="30" width="20" height="20" fill="black"/>
    <rect x="150" y="30" width="20" height="20" fill="black"/>
    <rect x="30" y="150" width="20" height="20" fill="black"/>
    
    <!-- Data pattern simulation -->
    <rect x="80" y="20" width="10" height="10"/>
    <rect x="100" y="20" width="10" height="10"/>
    <rect x="80" y="40" width="10" height="10"/>
    <rect x="110" y="40" width="10" height="10"/>
    
    <rect x="20" y="80" width="10" height="10"/>
    <rect x="40" y="80" width="10" height="10"/>
    <rect x="60" y="80" width="10" height="10"/>
    <rect x="80" y="80" width="10" height="10"/>
    <rect x="100" y="80" width="10" height="10"/>
    <rect x="120" y="80" width="10" height="10"/>
    <rect x="140" y="80" width="10" height="10"/>
    <rect x="160" y="80" width="10" height="10"/>
    <rect x="180" y="80" width="10" height="10"/>
    
    <rect x="80" y="100" width="10" height="10"/>
    <rect x="120" y="100" width="10" height="10"/>
    <rect x="160" y="100" width="10" height="10"/>
    
    <rect x="80" y="120" width="10" height="10"/>
    <rect x="100" y="120" width="10" height="10"/>
    <rect x="140" y="120" width="10" height="10"/>
    <rect x="180" y="120" width="10" height="10"/>
    
    <rect x="80" y="140" width="10" height="10"/>
    <rect x="120" y="140" width="10" height="10"/>
    <rect x="140" y="140" width="10" height="10"/>
    <rect x="180" y="140" width="10" height="10"/>
    
    <rect x="80" y="160" width="10" height="10"/>
    <rect x="100" y="160" width="10" height="10"/>
    <rect x="140" y="160" width="10" height="10"/>
    <rect x="160" y="160" width="10" height="10"/>
    
    <rect x="80" y="180" width="10" height="10"/>
    <rect x="120" y="180" width="10" height="10"/>
    <rect x="160" y="180" width="10" height="10"/>
  </g>
</svg>