<svg xmlns="http://www.w3.org/2000/svg" width="250" height="500" viewBox="0 0 250 500">
  <!-- Phone background -->
  <rect width="250" height="500" fill="#f5f7fa" rx="25"/>
  
  <!-- Header -->
  <rect x="0" y="0" width="250" height="50" fill="#667eea" rx="25" ry="0"/>
  <text x="125" y="30" text-anchor="middle" fill="white" font-family="Arial, sans-serif" font-size="16" font-weight="bold">AI Assistant</text>
  
  <!-- Chat messages -->
  <!-- AI Message 1 -->
  <rect x="20" y="80" width="180" height="50" fill="#e3f2fd" rx="15"/>
  <text x="30" y="100" fill="#1976d2" font-family="Arial, sans-serif" font-size="12">Hello! I'm your hydration assistant.</text>
  <text x="30" y="115" fill="#1976d2" font-family="Arial, sans-serif" font-size="12">How can I help you today?</text>
  
  <!-- User Message -->
  <rect x="50" y="150" width="180" height="35" fill="#2196f3" rx="15"/>
  <text x="60" y="170" fill="white" font-family="Arial, sans-serif" font-size="12">How much water should I drink?</text>
  
  <!-- AI Message 2 -->
  <rect x="20" y="200" width="200" height="80" fill="#e3f2fd" rx="15"/>
  <text x="30" y="220" fill="#1976d2" font-family="Arial, sans-serif" font-size="11">Based on your profile, I recommend</text>
  <text x="30" y="235" fill="#1976d2" font-family="Arial, sans-serif" font-size="11">drinking 2500ml of water daily.</text>
  <text x="30" y="250" fill="#1976d2" font-family="Arial, sans-serif" font-size="11">You're currently at 75% of your goal.</text>
  <text x="30" y="270" fill="#1976d2" font-family="Arial, sans-serif" font-size="11">Great progress! 🎉</text>
  
  <!-- User Message 2 -->
  <rect x="80" y="300" width="150" height="35" fill="#2196f3" rx="15"/>
  <text x="90" y="320" fill="white" font-family="Arial, sans-serif" font-size="12">Any tips for staying hydrated?</text>
  
  <!-- AI Message 3 -->
  <rect x="20" y="350" width="190" height="65" fill="#e3f2fd" rx="15"/>
  <text x="30" y="370" fill="#1976d2" font-family="Arial, sans-serif" font-size="11">Here are some tips:</text>
  <text x="30" y="385" fill="#1976d2" font-family="Arial, sans-serif" font-size="11">• Set regular reminders</text>
  <text x="30" y="400" fill="#1976d2" font-family="Arial, sans-serif" font-size="11">• Keep water visible</text>
  
  <!-- Input area -->
  <rect x="20" y="440" width="210" height="35" fill="white" stroke="#ddd" rx="17"/>
  <text x="30" y="460" fill="#999" font-family="Arial, sans-serif" font-size="12">Type a message...</text>
  
  <!-- AI info -->
  <text x="125" y="490" text-anchor="middle" fill="#666" font-family="Arial, sans-serif" font-size="8">Powered by Google Gemini AI</text>
</svg>